<svg id="Capa_1" data-name="Capa 1" xmlns="http://www.w3.org/2000/svg" viewBox="0 0 1080 1080"><defs><style>.cls-1{fill:#ccc;}</style></defs><title>twitter</title><path class="cls-1" d="M686,366.89V388.6c0,102.13.42,204.27-.11,306.4-.65,123.47-79.84,221.27-198.81,246.74-131.95,28.25-263.4-60.19-291-195.81-26.7-131,63.68-264.8,195-288.82a278.83,278.83,0,0,1,52-4.51c7.21,0,11.53,1.51,11.38,10.64q-.81,50.79,0,101.6c.14,9.46-3.86,9.52-11.43,9.32-66.66-1.83-119.38,43.27-129.45,110.24-8.95,59.44,31.38,119.41,91.73,136.41,81.74,23,164.19-38.47,164.48-123.26q.93-273.85.92-547.71c0-12.67,2.23-17.36,16.07-16.79,29.06,1.19,58.22.95,87.3,0,10.83-.33,14,3.27,15.9,13.41,16.79,87.89,68.51,145.18,153.55,172.32,11.5,3.67,23.63,5.73,35.63,7.29,6.86.9,8.44,3.41,8.4,9.88-.28,38.63-.59,77.27.14,115.89.2,11.23-5.4,11.55-13.5,11.6-70.31.42-128.51-25.66-174.2-79.26C696.29,379.89,692.82,375.36,686,366.89Z"/></svg>