<svg id="Capa_1" data-name="Capa 1" xmlns="http://www.w3.org/2000/svg" viewBox="0 0 1080 1080"><defs><style>.cls-1{fill:#ccc;}</style></defs><title>twitter</title><path class="cls-1" d="M359.12,774.16C270,766.92,213.05,715.68,177,628.88c31.09,4.8,59.4,5.15,88.75-3.61-45-12.87-83.42-34.75-112-73.77-28.24-38.54-42.6-82.31-42.4-133.08,27,15.09,54.31,24.23,86.11,25.51-41.82-32.9-68.92-74.29-79.79-127s-3.68-103,20.85-150.71c9.18,11.08,17.52,22,26.67,32,79.51,87.25,173.32,147,284.6,172.76A486.91,486.91,0,0,0,532,383.13c5.64.32,6.63-.89,5.54-7.11-20.73-117.27,51.47-228.8,160.36-246,62.5-9.85,117.8,8.92,163.8,56.6,5.33,5.53,9.87,6.39,16.45,4.69a419.5,419.5,0,0,0,106-43.31c1.82-1.06,3.45-3.08,6.92-1.86-13.9,48.47-44.61,82-83.62,111.59A418.49,418.49,0,0,0,1015,228.55c-16.67,26.7-33.9,52.06-57.22,71.76-11.78,10-22.94,20.77-34.62,30.87-3.46,3-2.63,6.52-2.57,10.08,2.66,156.46-44,293.84-136.28,413.48-20.65,26.77-43.52,51.28-69,72.53C634.65,894.37,544.6,936.56,442.9,948.73c-81,9.7-160.23,3.21-238.23-22.9-41.84-14-81.18-33.54-118.67-57.78a66.87,66.87,0,0,1-9-6.55C180.32,870,274.52,844.2,359.12,774.16Z"/></svg>