<svg id="Capa_1" data-name="Capa 1" xmlns="http://www.w3.org/2000/svg" viewBox="0 0 1080 1080"><defs><style>.cls-1{fill:#ccc;stroke:#ccc;stroke-miterlimit:10;stroke-width:23px;}</style></defs><title>Iconos_WaroColombia_social</title><path class="cls-1" d="M65,539.39q0-95,0-190c.15-137.58,90.9-249.9,225.36-278.85A268.4,268.4,0,0,1,347.13,65C475.56,65,604,64.78,732.44,65,874.28,65.3,991,166,1012.23,306a279.77,279.77,0,0,1,2.85,41.95c-.09,128.08.11,256.16-.1,384.23-.23,136.32-92.36,249.32-225.87,277.38a274.66,274.66,0,0,1-56.8,5.52c-128.08-.06-256.15.14-384.23-.08C206,1014.73,89.76,914.92,67.83,774.52a282.2,282.2,0,0,1-2.92-44.1C65.06,666.74,65,603.06,65,539.39Zm473.9,432.44q95.52,0,191,.06c14.07,0,28.11-.57,41.91-3,119.28-21.23,199.9-117.33,200-238.35q.13-190.5.08-381c0-13.71-.6-27.39-2.91-40.85-20.34-118.73-117.2-200.36-237.93-200.48Q540,108,349,108.1a249.19,249.19,0,0,0-39.79,2.78c-116.83,18.86-200.68,116.83-201,235.34-.31,129.15,0,258.31-.09,387.46A227.17,227.17,0,0,0,113.69,785C139.4,896.61,233.24,971.5,347.84,971.8,411.52,972,475.2,971.83,538.87,971.83Z"/><path class="cls-1" d="M777.52,539.9C777.57,670.61,671,777.35,540.35,777.52c-131.14.17-238.07-106.81-237.87-238,.21-130.68,107-237.14,237.69-237.06S777.46,409.15,777.52,539.9Zm-43.21.62c.22-107.38-86.11-194.42-193.24-194.83-107.9-.42-195.18,86.14-195.38,193.76-.2,107.36,86.13,194.42,193.23,194.86C646.75,734.76,734.09,648.13,734.31,540.52Z"/><path class="cls-1" d="M842.27,281.19a43.17,43.17,0,1,1-42.87-43.47A43.29,43.29,0,0,1,842.27,281.19Z"/></svg>