<svg id="Group_57" data-name="Group 57" xmlns="http://www.w3.org/2000/svg" xmlns:xlink="http://www.w3.org/1999/xlink" width="387" height="340" viewBox="0 0 387 340">
  <defs>
    <clipPath id="clip-path">
      <path id="Clip_32" data-name="Clip 32" d="M0,0H30V24H0Z" fill="none"/>
    </clipPath>
    <clipPath id="clip-path-2">
      <path id="Clip_41" data-name="Clip 41" d="M0,0H93V43H0Z" fill="none"/>
    </clipPath>
  </defs>
  <path id="Fill_1" data-name="Fill 1" d="M28.554,15.04a2.967,2.967,0,0,0-2.75-1.807H16.451a2.887,2.887,0,1,0,0,5.773h5.136a8.651,8.651,0,0,1-7.036,3.531,8.512,8.512,0,0,1-8.617-8.382,8.512,8.512,0,0,1,8.617-8.382,8.666,8.666,0,0,1,5.431,1.874,3.024,3.024,0,0,0,4.175-.419,2.833,2.833,0,0,0-.431-4.06A14.839,14.839,0,0,0,14.552,0,14.373,14.373,0,0,0,0,14.155,14.373,14.373,0,0,0,14.552,28.31a15.1,15.1,0,0,0,3.555-.423l-8.4,20.141a2.86,2.86,0,0,0,1.635,3.76A3.019,3.019,0,0,0,12.457,52a2.97,2.97,0,0,0,2.751-1.8L27.8,20q.229-.495.422-1.011l.562-1.347a2.811,2.811,0,0,0-.228-2.6" transform="translate(358 288)" fill="#fff"/>
  <path id="Fill_3" data-name="Fill 3" d="M47.322.363A14.54,14.54,0,0,0,33.3,10.073c-.006.016-.009.034-.015.051l-3.7,8.59c-.033.075-.059.152-.084.228a2.776,2.776,0,0,0-.185.431,3.042,3.042,0,0,1-.822,1.283,3.446,3.446,0,0,1-4.661,0,2.969,2.969,0,0,1-.725-3.363,2.743,2.743,0,0,0,.159-.5L29.115,3.978A2.793,2.793,0,0,0,27.527.232a3.1,3.1,0,0,0-3.98,1.5l-7.72,16.928a5.018,5.018,0,0,1-.763.91,5.509,5.509,0,0,1-7.46,0,4.751,4.751,0,0,1-1.159-5.381c.019-.047.034-.093.051-.14L10.529,5.2A2.793,2.793,0,0,0,8.941,1.455a3.1,3.1,0,0,0-3.979,1.5L.874,11.915a2.837,2.837,0,0,0-.124.332A10.205,10.205,0,0,0,3.32,23.6a11.622,11.622,0,0,0,8.014,3.125,11.658,11.658,0,0,0,7.534-2.7,9.076,9.076,0,0,0,.655.693,9.828,9.828,0,0,0,13.29,0,8.789,8.789,0,0,0,2.342-3.665c.022-.069.038-.136.055-.205l1.134-2.635,3.41-7.913a8.663,8.663,0,0,1,7.569-4.232,8.388,8.388,0,0,1,8.62,8.115,8.388,8.388,0,0,1-8.62,8.114,8.855,8.855,0,0,1-5.432-1.814,3.16,3.16,0,0,0-4.262.413,2.741,2.741,0,0,0,.44,4.013A15.29,15.29,0,0,0,47.322,28C55.416,28,62,21.8,62,14.182S55.416.363,47.322.363" transform="translate(138 288)" fill="#fff"/>
  <path id="Fill_5" data-name="Fill 5" d="M3,6A3,3,0,1,0,0,3,3,3,0,0,0,3,6" transform="translate(229 283)" fill="#fff"/>
  <path id="Fill_7" data-name="Fill 7" d="M8.121,26.494l9.653-22.5A2.848,2.848,0,0,0,16.086.213a3.129,3.129,0,0,0-3.994,1.6L0,30c.038-.036.072-.075.109-.11a12.576,12.576,0,0,1,8.012-3.4" transform="translate(281 260)" fill="#fff"/>
  <path id="Fill_9" data-name="Fill 9" d="M3,6A3,3,0,1,0,0,3,3,3,0,0,0,3,6" transform="translate(315 283)" fill="#fff"/>
  <path id="Fill_11" data-name="Fill 11" d="M91.431,25.471a2.985,2.985,0,0,0-.156.352l-.082.186a2.836,2.836,0,0,0-.122.335,3.132,3.132,0,0,1-.653.909,3.317,3.317,0,0,1-4.589,0,3.076,3.076,0,0,1-.713-3.411c0-.008.006-.015.008-.022s.013-.023.019-.036l1.745-4.174c.016-.034.03-.069.044-.105l.006-.015a2.872,2.872,0,0,0,.125-.379c0-.01.007-.018.009-.028s.009-.045.014-.067c.01-.046.021-.09.028-.136A11.393,11.393,0,0,0,78.267,5.441,11.842,11.842,0,0,0,65.783,10.35a12.511,12.511,0,0,0-.962,1.477c0,.006-.005.012-.008.018l-.007,0-.055.134c-.03.064-.056.128-.078.19l-4.044,9.839-.016.037a2.893,2.893,0,0,0-.115.339,2.84,2.84,0,0,0-.3.641,4.973,4.973,0,0,1-1.3,2.1,5.344,5.344,0,0,1-7.4,0,4.955,4.955,0,0,1-1.149-5.5,2.853,2.853,0,0,0,.169-.56l4.382-9.9A2.881,2.881,0,0,0,53.33,5.341a3.039,3.039,0,0,0-3.944,1.528L41.89,23.8c0,.008-.006.015-.009.024a2.837,2.837,0,0,0-.3.642,3.087,3.087,0,0,1-.808,1.3,3.32,3.32,0,0,1-4.589,0,3.075,3.075,0,0,1-.713-3.411,2.854,2.854,0,0,0,.148-.476l0,0,2.906-6.95a2.858,2.858,0,0,0,.162-.528A10.643,10.643,0,0,0,36,3.192a11.483,11.483,0,0,0-15.89,0,10.88,10.88,0,0,0-2.7,4.225c0-.007-.005-.013-.008-.02L10.531,23.937a2.9,2.9,0,0,0-.228.53,3.087,3.087,0,0,1-.808,1.3,3.319,3.319,0,0,1-4.576.011A16.12,16.12,0,0,1,0,29.19c.2.228.415.46.659.7A9.372,9.372,0,0,0,7.2,32.511a9.372,9.372,0,0,0,6.542-2.624A9,9,0,0,0,15.776,26.9h0l0-.011c.031-.074.064-.148.093-.223l6.94-16.7a2.853,2.853,0,0,0,.242-.555,4.981,4.981,0,0,1,1.3-2.1,5.345,5.345,0,0,1,7.4,0,4.957,4.957,0,0,1,1.149,5.5,2.962,2.962,0,0,0-.124.375l-2.719,6.5a2.844,2.844,0,0,0-.149.476v0a8.764,8.764,0,0,0,2.032,9.72,9.465,9.465,0,0,0,13.082,0,9.052,9.052,0,0,0,1.334-1.641,11.026,11.026,0,0,0,.9.995,11.485,11.485,0,0,0,15.89,0,10.867,10.867,0,0,0,2.8-4.516c.008-.027.014-.055.021-.083a2.929,2.929,0,0,0,.144-.278c.041-.078.087-.153.12-.234l4.307-10.173c.053-.072.1-.146.151-.224a5.772,5.772,0,0,1,6.233-2.614,5.686,5.686,0,0,1,3.57,2.466,5.373,5.373,0,0,1,.749,4.078l-1.547,3.7a2.932,2.932,0,0,0-.143.292,8.764,8.764,0,0,0,2.032,9.719,9.456,9.456,0,0,0,13.082,0,8.963,8.963,0,0,0,2.193-3.395L98,25.4a14.791,14.791,0,0,1-3.217-7.5Z" transform="translate(262 286)" fill="#fff"/>
  <path id="Fill_13" data-name="Fill 13" d="M7,2A3,3,0,0,0,5.369.227a2.869,2.869,0,0,0-3.8,1.7L0,6A11.965,11.965,0,0,1,7,2" transform="translate(329 289)" fill="#fff"/>
  <path id="Fill_15" data-name="Fill 15" d="M30.414,0A14.478,14.478,0,0,0,16.6,9.466L.222,48.042A2.834,2.834,0,0,0,1.88,51.788,3.121,3.121,0,0,0,3.01,52,3.015,3.015,0,0,0,5.8,50.2L22.047,11.933l.416-1.051a8.531,8.531,0,0,1,7.951-5.13,8.391,8.391,0,0,1,8.566,8.184,8.391,8.391,0,0,1-8.566,8.184,8.709,8.709,0,0,1-5.4-1.83,3.108,3.108,0,0,0-4.235.417,2.791,2.791,0,0,0,.437,4.046,15.044,15.044,0,0,0,9.2,3.119C38.457,27.873,45,21.62,45,13.936S38.457,0,30.414,0" transform="translate(92 288)" fill="#fff"/>
  <path id="Fill_17" data-name="Fill 17" d="M66.833,50.6a.391.391,0,0,1,.066-.064A13.238,13.238,0,0,0,69.12,37.3a14.024,14.024,0,0,0-7.536-7.79,15.2,15.2,0,0,0-11.138-.457,14.323,14.323,0,0,0-7.235,5.459,2.794,2.794,0,0,0-.213.375,11.2,11.2,0,0,0-1.105,1.93l-4.1,9.76a4.992,4.992,0,0,1-.848,1.059,5.442,5.442,0,0,1-7.4,0,4.771,4.771,0,0,1-1.15-5.378,2.761,2.761,0,0,0,.167-.54l2.714-5.992A2.8,2.8,0,0,0,29.7,31.984a3.07,3.07,0,0,0-3.948,1.494L20.561,44.943a2.768,2.768,0,0,0-.306.641c-.028.086-.067.168-.1.252l-.232.511a4.934,4.934,0,0,1-.974,1.289,5.442,5.442,0,0,1-7.4,0,4.782,4.782,0,0,1-1.372-4.73L26.855,3.922A2.8,2.8,0,0,0,25.2.21a3.065,3.065,0,0,0-3.916,1.569L5.074,39.662a2.8,2.8,0,0,0-.249.455c-.129.3-.237.605-.335.912L.221,51a2.8,2.8,0,0,0,1.656,3.712,3.135,3.135,0,0,0,1.129.21,3.013,3.013,0,0,0,2.787-1.779l.9-2.1c.192.213.392.421.6.621a11.492,11.492,0,0,0,7.953,3.123A11.492,11.492,0,0,0,23.2,51.667c.215-.2.418-.419.615-.638a2.988,2.988,0,0,0,.511-.414,10.952,10.952,0,0,0,.968,1.052,11.689,11.689,0,0,0,15.907,0,10.79,10.79,0,0,0,1.857-2.332c.024-.038.045-.077.068-.116a10.291,10.291,0,0,0,.879-1.97c.013-.042.022-.084.034-.127l3.516-8.386.555-.931c.051-.062.1-.125.147-.193a8.419,8.419,0,0,1,4.247-3.2,8.926,8.926,0,0,1,6.541.269,8.233,8.233,0,0,1,4.424,4.575A7.653,7.653,0,0,1,63.9,43.14a8.216,8.216,0,0,1-4.555,6.1c-.016.007-.032.01-.049.016a8.872,8.872,0,0,1-.938.387,7.821,7.821,0,0,1-4.082.606,1.387,1.387,0,0,1-1.085-1.308,3.149,3.149,0,0,1,3.248-3.079,3.259,3.259,0,0,1,2.962,1.811c.032.092.1.282.167.535a7.317,7.317,0,0,0,3.5-5.354.424.424,0,0,1,0-.042,9.5,9.5,0,0,0-6.631-2.649,9.04,9.04,0,0,0-9.261,8.779,7.006,7.006,0,0,0,1.346,4.512,6.319,6.319,0,0,0,1.641,1.406c2.718,1.468,6.263,1.517,10.25.14.189-.065.372-.138.556-.21A14.844,14.844,0,0,0,66.833,50.6" transform="translate(200 260)" fill="#fff"/>
  <path id="Fill_19" data-name="Fill 19" d="M6.137,5.839A15.34,15.34,0,0,1,8.3,5.228l.484-1.186a2.945,2.945,0,0,0-5.46-2.207L0,10A14.975,14.975,0,0,1,6.137,5.839" transform="translate(244 282)" fill="#fff"/>
  <path id="Fill_21" data-name="Fill 21" d="M8.468,28.374,18.778,3.985A2.857,2.857,0,0,0,17.116.213a3.062,3.062,0,0,0-3.931,1.595L0,33a15.529,15.529,0,0,1,8.468-4.626" transform="translate(174 260)" fill="#fff"/>
  <path id="Fill_23" data-name="Fill 23" d="M8,1.994A2.954,2.954,0,0,0,6.141.206,3.37,3.37,0,0,0,1.977,1.743L0,6A13.513,13.513,0,0,1,8,1.994" transform="translate(41 285)" fill="#fff"/>
  <path id="Fill_25" data-name="Fill 25" d="M2.7,6.5.221,12.163A2.724,2.724,0,0,0,1.878,15.8a3.212,3.212,0,0,0,1.129.2,3.019,3.019,0,0,0,2.788-1.74L11.97.134,12,0s-.319.323-.481.481A29.616,29.616,0,0,1,2.7,6.5" transform="translate(32 299)" fill="#fff"/>
  <path id="Fill_27" data-name="Fill 27" d="M17.826.123a3.133,3.133,0,0,0-3.833,1.855A4.743,4.743,0,0,1,12.661,3.99a5.586,5.586,0,0,1-3.78,1.424A5.586,5.586,0,0,1,5.1,3.989c-.171-.156-.334-.316-.495-.478C2.911,4.981,1.279,6.253,0,7.207c.246.25.5.494.76.733A12.007,12.007,0,0,0,8.881,11,12.009,12.009,0,0,0,17,7.939,10.336,10.336,0,0,0,19.865,3.61,2.757,2.757,0,0,0,17.826.123" transform="translate(72 305)" fill="#fff"/>
  <path id="Fill_29" data-name="Fill 29" d="M77.728,19.165c.48-.534.924-1.058,1.337-1.573h0c.012-.014.022-.028.033-.042q.526-.658.98-1.294l.124-.177c.106-.152.209-.3.31-.453q.067-.1.133-.2c.1-.152.195-.3.288-.454.034-.055.069-.109.1-.164.011-.018.023-.037.035-.056h0c1.569-2.615,2.177-4.977,1.844-7.145A7.806,7.806,0,0,0,78.991,2.1a8.494,8.494,0,0,0-8.437-.577C66.946,3.291,64.5,7.574,64.326,12.437a22.457,22.457,0,0,0,1.023,7.89q.18.568.391,1.117c1.459-1.16,3.253-2.671,4.967-4.345a17.548,17.548,0,0,1-.351-4.468,9.886,9.886,0,0,1,1.184-4.287c.809-1.416,2.161-2.387,3.648-1.852a2.534,2.534,0,0,1,1.544,3.556,16.825,16.825,0,0,1-3.608,5.437,67.5,67.5,0,0,1-10.035,8.727c-1.7,1.083-4.169,1.591-5.422.409a2.946,2.946,0,0,1-.716-3.332c.023-.053.04-.107.059-.161,0,0,1.131-2.608,1.651-3.857a9.8,9.8,0,0,0-1.268-8.916A11.713,11.713,0,0,0,50.044,3.42a12.033,12.033,0,0,0-12.7,5.032c-5.642,6.492-11.962,8.079-16.787,8.079a22.244,22.244,0,0,1-6.935-1.1c-4.76-1.6-7.6-4.479-7.592-6.339C6.038,7.713,8,6.739,9.3,6.246a10.333,10.333,0,0,1,2.212-.493v0a10.387,10.387,0,0,1,1.137-.064c.194,0,.386.006.578.017.059,0,.118.008.178.012q.2.014.4.036l.2.024q.2.026.389.058c.058.01.116.018.173.029q.262.048.519.109l.026.005c.182.044.36.094.538.147.048.014.1.031.144.046.13.041.258.084.385.13l.164.061c.124.048.247.1.369.149l.141.06c.16.072.318.146.474.225l.014.007c.165.084.327.174.487.267l.092.055c.125.075.249.152.37.232l.119.08c.115.078.229.159.342.242l.1.075a9.743,9.743,0,0,1,.83.708c.016.014.03.03.046.044.113.109.223.222.331.337l.081.088q.146.16.285.326l.07.084c.111.137.22.276.322.418a8.9,8.9,0,0,1,1.717,5.242c0,.281-.015.558-.041.832a20.021,20.021,0,0,0,5.913-1.466c.048-.02.1-.042.144-.062A14.518,14.518,0,0,0,24.5,5.021h0c-.025-.027-.052-.051-.077-.078q-.21-.219-.428-.429l-.133-.126q-.218-.2-.443-.4l-.141-.122q-.229-.194-.466-.381l-.14-.109q-.249-.191-.505-.372l-.124-.088q-.285-.2-.579-.383L21.4,2.483a16.138,16.138,0,0,0-2.12-1.114c-.052-.023-.106-.043-.159-.066-.188-.079-.378-.157-.57-.23L18.313.989c-.17-.061-.34-.12-.512-.177-.091-.029-.183-.057-.275-.086-.163-.049-.326-.1-.491-.142-.1-.027-.2-.053-.3-.078-.16-.04-.322-.078-.483-.114-.1-.023-.21-.046-.315-.067-.162-.032-.325-.061-.488-.088C15.343.22,15.236.2,15.129.185,14.961.161,14.792.14,14.622.12c-.1-.012-.207-.026-.311-.036-.186-.018-.373-.031-.56-.043-.09-.006-.179-.014-.269-.019C13.2.008,12.924,0,12.643,0A16.73,16.73,0,0,0,8.409.542c-.394.1-.877.25-1.266.387a15.716,15.716,0,0,0-3.2,1.57l-.034.038s-.686.483-.984.731A7.461,7.461,0,0,0,0,9.07c-.015,4.671,4.646,9.381,11.6,11.718a27.93,27.93,0,0,0,8.851,1.428,28.146,28.146,0,0,0,21.686-10.3c.032-.038.06-.077.09-.116l.06-.077c.021-.029.042-.06.061-.09s.056-.076.081-.116a5.867,5.867,0,0,1,6.262-2.554,5.718,5.718,0,0,1,3.587,2.409,4.421,4.421,0,0,1,.653,4.085l-1.6,3.72c-.017.038-.029.078-.043.117s-.037.094-.052.141l-.014.046A8.4,8.4,0,0,0,53.4,28.647,9.036,9.036,0,0,0,59.687,31a12.747,12.747,0,0,0,6.853-2.117l.081-.055a72.648,72.648,0,0,0,11.107-9.663" transform="translate(3 285)" fill="#fff"/>
  <g id="Group_33" data-name="Group 33" transform="translate(0 291)">
    <path id="Clip_32-2" data-name="Clip 32" d="M0,0H30V24H0Z" fill="none"/>
    <g id="Group_33-2" data-name="Group 33" clip-path="url(#clip-path)">
      <path id="Fill_31" data-name="Fill 31" d="M21.5,16.792a10.383,10.383,0,0,1-5.54,1.579,9.721,9.721,0,0,1-9.8-7.88A10.254,10.254,0,0,1,2.637,3.283,7.452,7.452,0,0,1,3.414,0,14.125,14.125,0,0,0,0,9.158C0,17.342,7.161,24,15.962,24A16.182,16.182,0,0,0,30,16.216a28.975,28.975,0,0,1-6.205.667c-.763,0-1.529-.031-2.293-.091" transform="translate(0)" fill="#fff"/>
    </g>
  </g>
  <path id="Fill_34" data-name="Fill 34" d="M88.708,45.1C57.128,6.828,14.22.668,9.2.069A8.085,8.085,0,0,0,.127,6.361,7.757,7.757,0,0,0,6.7,15.309c.14.023.322.05.463.066,1.646.194,40.625,5.152,68.751,39.239a102.165,102.165,0,0,1,23.835,65.673,8.136,8.136,0,0,0,16.251,0A116.962,116.962,0,0,0,88.708,45.1" transform="translate(206 2)" fill="#f05a28"/>
  <path id="Fill_36" data-name="Fill 36" d="M9.946.208A8.112,8.112,0,0,0,.217,5.968a7.737,7.737,0,0,0,6.018,9.312A83.506,83.506,0,0,1,51.7,42.83,76.147,76.147,0,0,1,69.823,92.258a8.1,8.1,0,0,0,16.177,0A92.318,92.318,0,0,0,64.324,33.143,99.871,99.871,0,0,0,9.946.208" transform="translate(206 31)" fill="#f05a28"/>
  <path id="Fill_38" data-name="Fill 38" d="M10.9.463A8.244,8.244,0,0,0,.483,5.151a7.7,7.7,0,0,0,4.9,9.964C26.52,22.39,40.72,41.72,40.72,63.214a8.148,8.148,0,0,0,16.28,0C57,35.173,38.474,9.956,10.9.463" transform="translate(206 60)" fill="#f05a28"/>
  <g id="Group_42" data-name="Group 42" transform="translate(108)">
    <path id="Clip_41-2" data-name="Clip 41" d="M0,0H93V43H0Z" fill="none"/>
    <g id="Group_42-2" data-name="Group 42" clip-path="url(#clip-path-2)">
      <path id="Fill_40" data-name="Fill 40" d="M8.1,43a8.236,8.236,0,0,0,5.224-1.849A114.323,114.323,0,0,1,84.947,15.633,7.956,7.956,0,0,0,93,7.777,7.962,7.962,0,0,0,84.907,0h-.042a130.881,130.881,0,0,0-82,29.217,7.633,7.633,0,0,0-.951,11.016A8.2,8.2,0,0,0,8.1,43" transform="translate(0 0)" fill="#fff"/>
    </g>
  </g>
  <path id="Fill_43" data-name="Fill 43" d="M24.293,120.4a101.5,101.5,0,0,1-8.007-39.644,103.66,103.66,0,0,1,25.841-68.1A7.462,7.462,0,0,0,41.054,1.778,8.446,8.446,0,0,0,29.588,2.8,118.676,118.676,0,0,0,0,80.756a116.213,116.213,0,0,0,9.172,45.385A8.156,8.156,0,0,0,16.735,131a8.5,8.5,0,0,0,3.021-.555A7.6,7.6,0,0,0,24.293,120.4" transform="translate(65 42)" fill="#fff"/>
  <path id="Fill_45" data-name="Fill 45" d="M148.3.126a8.12,8.12,0,0,0-9.462,6.26,106.468,106.468,0,0,1-38.207,62.827A115.98,115.98,0,0,1,28.089,94.471,119.127,119.127,0,0,1,9.482,93.013,8.11,8.11,0,0,0,.112,99.4a7.814,7.814,0,0,0,6.7,8.933A136.372,136.372,0,0,0,28.089,110a132.768,132.768,0,0,0,83.049-28.921c22.9-18.425,38.432-43.971,43.731-71.933A7.8,7.8,0,0,0,148.3.126" transform="translate(165 135)" fill="#fff"/>
  <path id="Fill_47" data-name="Fill 47" d="M98.9,15.532A7.937,7.937,0,0,0,107,7.766,7.937,7.937,0,0,0,98.9,0C44.368,0,0,42.55,0,94.852c0,1.226.024,2.464.073,3.68A7.952,7.952,0,0,0,8.158,106c.1,0,.21,0,.314-.006a7.906,7.906,0,0,0,7.783-8.056c-.041-1.019-.061-2.057-.061-3.086,0-43.737,37.1-79.32,82.708-79.32" transform="translate(94 28)" fill="#fff"/>
  <path id="Fill_49" data-name="Fill 49" d="M68.849,49.282A85.39,85.39,0,0,1,16.8,66.552c-2.628,0-5.28-.117-7.881-.348a8.045,8.045,0,0,0-8.886,6.97A7.854,7.854,0,0,0,7.4,81.585c3.105.275,6.269.415,9.4.415A103.531,103.531,0,0,0,79.05,61.341,94.321,94.321,0,0,0,113.777,9.508a7.715,7.715,0,0,0-6.056-9.3A8.191,8.191,0,0,0,97.9,5.942,78.869,78.869,0,0,1,68.849,49.282" transform="translate(176 135)" fill="#fff"/>
  <path id="Fill_51" data-name="Fill 51" d="M58.3,53.873c29.1,0,55.3-17.494,65.209-43.534A7.615,7.615,0,0,0,118.659.463a8.212,8.212,0,0,0-10.37,4.623C100.7,25.044,80.608,38.452,58.3,38.452A54.941,54.941,0,0,1,36.171,33.87,8.414,8.414,0,0,0,27.3,35.21a7.721,7.721,0,0,0-2.389,3.08L.6,95.389a7.59,7.59,0,0,0,4.46,10.042A8.425,8.425,0,0,0,8.1,106a8.113,8.113,0,0,0,7.506-4.815L37.095,50.724A72.165,72.165,0,0,0,58.3,53.873" transform="translate(135 135)" fill="#fff"/>
  <path id="Fill_53" data-name="Fill 53" d="M61.884,29.2A23.98,23.98,0,0,1,83.837,15.482c13.208,0,23.953,10.262,23.953,22.875S97.044,61.232,83.837,61.232a24.391,24.391,0,0,1-16.873-6.639,8.378,8.378,0,0,0-11.463.039,7.5,7.5,0,0,0,.041,10.947A40.891,40.891,0,0,0,83.837,76.713C105.983,76.713,124,59.507,124,38.356S105.983,0,83.837,0C67.628,0,53.093,9.22,46.805,23.487c-.082.184-.147.37-.212.557l-46,108.3a7.625,7.625,0,0,0,4.464,10.083A8.4,8.4,0,0,0,8.1,143a8.12,8.12,0,0,0,7.514-4.832L61.794,29.443c.035-.082.059-.166.09-.247" transform="translate(109 85)" fill="#fff"/>
  <path id="Fill_55" data-name="Fill 55" d="M56.838,48.559C64.56,28.724,84.552,15.45,106.873,15.45A7.934,7.934,0,0,0,115,7.725,7.934,7.934,0,0,0,106.873,0C77.381,0,50.991,17.76,41.206,44.192c0,.008,0,.016-.007.023L.6,139.37a7.6,7.6,0,0,0,4.476,10.062A8.469,8.469,0,0,0,8.125,150a8.145,8.145,0,0,0,7.535-4.824l40.9-95.86a7.817,7.817,0,0,0,.277-.758" transform="translate(86 57)" fill="#fff"/>
</svg>
